<svg width="34" height="34" viewBox="0 0 34 34" fill="none" xmlns="http://www.w3.org/2000/svg">
<g clip-path="url(#clip0_6878_403)">
<path d="M1.37747 13.7838C1.28142 13.7839 1.18779 13.7538 1.10973 13.6978C1.03167 13.6418 0.973108 13.5628 0.94228 13.4719C0.911452 13.3809 0.909905 13.2826 0.937857 13.1907C0.965809 13.0988 1.02185 13.018 1.09811 12.9596L6.61163 8.74128C6.70862 8.66989 6.82976 8.63944 6.94898 8.65648C7.0682 8.67352 7.17597 8.73668 7.24908 8.83238C7.32219 8.92808 7.35481 9.04866 7.33991 9.16816C7.32501 9.28767 7.26378 9.39655 7.16941 9.47136L1.6559 13.6892C1.57614 13.7507 1.4782 13.784 1.37747 13.7838Z" fill="black"/>
<path d="M32.6207 33.0812H1.37743C1.25557 33.0812 1.13871 33.0328 1.05254 32.9466C0.966376 32.8605 0.917969 32.7436 0.917969 32.6217V13.3244C0.917969 13.2026 0.966376 13.0857 1.05254 12.9996C1.13871 12.9134 1.25557 12.865 1.37743 12.865C1.49928 12.865 1.61615 12.9134 1.70232 12.9996C1.78848 13.0857 1.83689 13.2026 1.83689 13.3244V32.1623H32.1612V13.3244C32.1612 13.2026 32.2096 13.0857 32.2958 12.9996C32.3819 12.9134 32.4988 12.865 32.6207 12.865C32.7425 12.865 32.8594 12.9134 32.9456 12.9996C33.0317 13.0857 33.0801 13.2026 33.0801 13.3244V32.6217C33.0801 32.7436 33.0317 32.8605 32.9456 32.9466C32.8594 33.0328 32.7425 33.0812 32.6207 33.0812Z" fill="black"/>
<path d="M17.0012 24.7235C15.3869 24.7256 13.8222 24.1656 12.5757 23.1397L1.08923 13.679C0.995157 13.6015 0.935724 13.4898 0.924005 13.3685C0.912287 13.2472 0.949243 13.1262 1.02674 13.0321C1.10424 12.938 1.21594 12.8786 1.33726 12.8669C1.45858 12.8552 1.57959 12.8921 1.67366 12.9696L13.1601 22.4303C14.2428 23.3195 15.6003 23.8055 17.0012 23.8055C18.4022 23.8055 19.7597 23.3195 20.8423 22.4303L32.3288 12.9696C32.4229 12.8921 32.5439 12.8552 32.6652 12.8669C32.7865 12.8786 32.8982 12.938 32.9757 13.0321C33.0532 13.1262 33.0902 13.2472 33.0785 13.3685C33.0667 13.4898 33.0073 13.6015 32.9132 13.679L21.4267 23.1397C20.1803 24.1656 18.6156 24.7256 17.0012 24.7235Z" fill="black"/>
<path d="M32.6206 33.0811C32.5142 33.081 32.4111 33.044 32.3289 32.9764L20.6127 23.3277C20.5661 23.2893 20.5275 23.2422 20.4992 23.1889C20.4708 23.1356 20.4532 23.0773 20.4474 23.0172C20.4357 22.8959 20.4727 22.7749 20.5502 22.6808C20.6277 22.5867 20.7394 22.5273 20.8607 22.5156C20.982 22.5038 21.103 22.5408 21.1971 22.6183L32.9133 32.2669C32.9864 32.3271 33.0392 32.4085 33.0643 32.4998C33.0894 32.5911 33.0857 32.688 33.0537 32.7771C33.0216 32.8662 32.9628 32.9433 32.8853 32.9977C32.8078 33.0521 32.7154 33.0812 32.6206 33.0811Z" fill="black"/>
<path d="M1.37806 33.0811C1.28335 33.0812 1.19092 33.0521 1.11341 32.9977C1.03589 32.9433 0.977096 32.8662 0.945057 32.7771C0.913018 32.688 0.909305 32.5911 0.934424 32.4998C0.959544 32.4085 1.01227 32.3271 1.08539 32.2669L12.8016 22.6183C12.8957 22.5408 13.0167 22.5038 13.138 22.5156C13.2593 22.5273 13.371 22.5867 13.4485 22.6808C13.526 22.7749 13.563 22.8959 13.5513 23.0172C13.5395 23.1385 13.4801 23.2502 13.386 23.3277L1.66982 32.9764C1.58764 33.044 1.48451 33.081 1.37806 33.0811Z" fill="black"/>
<path d="M22.2075 5.8213C22.1067 5.82121 22.0087 5.78795 21.9286 5.72665L16.9977 1.95679L12.0668 5.72665C11.97 5.80068 11.8477 5.83321 11.7269 5.8171C11.6061 5.80099 11.4966 5.73755 11.4226 5.64073C11.3486 5.54392 11.316 5.42166 11.3322 5.30086C11.3483 5.18005 11.4117 5.0706 11.5085 4.99657L16.7188 1.01352C16.7989 0.952334 16.8969 0.919189 16.9977 0.919189C17.0985 0.919189 17.1965 0.952334 17.2766 1.01352L22.4868 4.99657C22.5643 5.05462 22.6214 5.13561 22.65 5.22802C22.6787 5.32043 22.6775 5.41952 22.6465 5.51119C22.6155 5.60285 22.5564 5.6824 22.4776 5.73849C22.3988 5.79459 22.3042 5.82437 22.2075 5.8236V5.8213Z" fill="black"/>
<path d="M32.6222 13.7838C32.5215 13.784 32.4235 13.7507 32.3438 13.6892L26.8303 9.47136C26.7359 9.39655 26.6747 9.28767 26.6598 9.16816C26.6449 9.04866 26.6775 8.92808 26.7506 8.83238C26.8237 8.73668 26.9315 8.67352 27.0507 8.65648C27.1699 8.63944 27.2911 8.66989 27.3881 8.74128L32.9016 12.9596C32.9778 13.018 33.0339 13.0988 33.0618 13.1907C33.0898 13.2826 33.0882 13.3809 33.0574 13.4719C33.0266 13.5628 32.968 13.6418 32.89 13.6978C32.8119 13.7538 32.7183 13.7839 32.6222 13.7838Z" fill="black"/>
<path d="M27.1054 18.3234C26.9835 18.3234 26.8666 18.275 26.7805 18.1888C26.6943 18.1027 26.6459 17.9858 26.6459 17.8639V5.82151H7.34861V17.8639C7.34861 17.9858 7.3002 18.1027 7.21403 18.1888C7.12787 18.275 7.011 18.3234 6.88915 18.3234C6.76729 18.3234 6.65043 18.275 6.56426 18.1888C6.47809 18.1027 6.42969 17.9858 6.42969 17.8639V5.36205C6.42969 5.24019 6.47809 5.12333 6.56426 5.03716C6.65043 4.951 6.76729 4.90259 6.88915 4.90259H27.1054C27.2272 4.90259 27.3441 4.951 27.4303 5.03716C27.5164 5.12333 27.5648 5.24019 27.5648 5.36205V17.8639C27.5648 17.9858 27.5164 18.1027 27.4303 18.1888C27.3441 18.275 27.2272 18.3234 27.1054 18.3234Z" fill="black"/>
<path d="M23.3173 10.1081H10.6821C10.5603 10.1081 10.4434 10.0597 10.3572 9.97355C10.2711 9.88739 10.2227 9.77052 10.2227 9.64867C10.2227 9.52681 10.2711 9.40995 10.3572 9.32378C10.4434 9.23762 10.5603 9.18921 10.6821 9.18921H23.3173C23.4391 9.18921 23.556 9.23762 23.6421 9.32378C23.7283 9.40995 23.7767 9.52681 23.7767 9.64867C23.7767 9.77052 23.7283 9.88739 23.6421 9.97355C23.556 10.0597 23.4391 10.1081 23.3173 10.1081Z" fill="black"/>
<path d="M23.3173 13.4392H10.6821C10.5603 13.4392 10.4434 13.3908 10.3572 13.3046C10.2711 13.2184 10.2227 13.1016 10.2227 12.9797C10.2227 12.8579 10.2711 12.741 10.3572 12.6548C10.4434 12.5687 10.5603 12.5203 10.6821 12.5203H23.3173C23.4391 12.5203 23.556 12.5687 23.6421 12.6548C23.7283 12.741 23.7767 12.8579 23.7767 12.9797C23.7767 13.1016 23.7283 13.2184 23.6421 13.3046C23.556 13.3908 23.4391 13.4392 23.3173 13.4392Z" fill="black"/>
<path d="M23.3173 16.7702H10.6821C10.5603 16.7702 10.4434 16.7218 10.3572 16.6357C10.2711 16.5495 10.2227 16.4326 10.2227 16.3108C10.2227 16.1889 10.2711 16.0721 10.3572 15.9859C10.4434 15.8997 10.5603 15.8513 10.6821 15.8513H23.3173C23.4391 15.8513 23.556 15.8997 23.6421 15.9859C23.7283 16.0721 23.7767 16.1889 23.7767 16.3108C23.7767 16.4326 23.7283 16.5495 23.6421 16.6357C23.556 16.7218 23.4391 16.7702 23.3173 16.7702Z" fill="black"/>
</g>
<defs>
<clipPath id="clip0_6878_403">
<rect width="34" height="34" fill="white"/>
</clipPath>
</defs>
</svg>
