<svg xmlns="http://www.w3.org/2000/svg" width="2667" height="3333" style="shape-rendering:geometricPrecision;text-rendering:geometricPrecision;image-rendering:optimizeQuality;fill-rule:evenodd;clip-rule:evenodd"><path fill="#fefffe" d="M1230.5 762.5c105.47-6.476 207.47 9.024 306 46.5 134.76 56.073 232.6 150.239 293.5 282.5 35.89 83.9 57.22 171.57 64 263 12.4 220.81-25.43 432.31-113.5 634.5 42.36 45.52 72.19 98.36 89.5 158.5 8.75 35.42 16.25 71.08 22.5 107-2.7 39.82-22.03 67.99-58 84.5-4.96 1.49-9.96 2.82-15 4-359.67.67-719.33.67-1079 0-41.697-9.37-65.863-35.2-72.5-77.5a90.455 90.455 0 0 1 0-19 1357.43 1357.43 0 0 1 28-117c18.789-49.42 45.622-93.92 80.5-133.5-93.602-213.1-131.435-435.94-113.5-668.5 8.453-87.34 31.12-170.67 68-250 74.309-147.916 191.476-244.749 351.5-290.5 48.71-12.779 98.04-20.946 148-24.5Zm32 113c90.44-2.599 176.77 14.568 259 51.5 92.14 46.137 159.97 115.97 203.5 209.5 31.83 73.56 50.17 150.56 55 231 1.83 21.3 2.66 42.63 2.5 64-168.41 15.61-331.08-8.22-488-71.5-76.08-31.84-145.08-74.51-207-128-49.19-44.18-88.355-96.02-117.5-155.5a476.273 476.273 0 0 1-23-69 217.217 217.217 0 0 1-3-23c48.939-40.224 104.11-69.058 165.5-86.5 50.23-13.597 101.23-21.097 153-22.5Zm-410 216a671.869 671.869 0 0 1 18.5 43 614.77 614.77 0 0 0 16 29l1 274c5.38 110.27 46.047 204.6 122 283 14.5 13.49 29.33 26.66 44.5 39.5-10.13 48.62-36.46 85.62-79 111a2622.63 2622.63 0 0 0-75 31 309.841 309.841 0 0 0-32.5 18.5c-72.869-177.04-104.202-361.38-94-553 4.646-66.57 17.98-131.24 40-194 11.036-28.4 23.87-55.73 38.5-82Zm150 217c70.78 63.9 150.12 114.74 238 152.5 94.29 39.91 192.29 66.74 294 80.5-19.13 46.39-47.79 85.56-86 117.5a484.885 484.885 0 0 1-42 29.5c-15.1 16.37-20.93 35.71-17.5 58 9.01 97.91 55.17 172.41 138.5 223.5a535.458 535.458 0 0 0 80 33 300.076 300.076 0 0 1 53 31c7.13 11.27 16.8 19.6 29 25 32.59 32.67 55.75 71.17 69.5 115.5 4.75 18.23 8.91 36.56 12.5 55h-983c18.519-109.33 78.186-186.83 179-232.5 106.31-33.63 172.48-104.47 198.5-212.5 2.79-17.4 4.63-34.9 5.5-52.5-.3-17.92-6.97-32.92-20-45-71.7-44.22-118.54-107.05-140.5-188.5-4.53-18.4-7.2-37.06-8-56-.5-44.67-.67-89.33-.5-134Zm764 239h11c-11.81 127.56-41.64 250.56-89.5 369a462.474 462.474 0 0 0-89.5-38.5c-41.49-19.49-70.32-50.65-86.5-93.5-2.27-7.97-4.43-15.97-6.5-24 .03-1.53.7-2.7 2-3.5 70.1-53 118.44-121.5 145-205.5a232.6 232.6 0 0 1 39.5 0c25.03-.61 49.86-1.95 74.5-4Z" style="opacity:.986"/></svg>